<svg id="Layer_1" data-name="Layer 1" xmlns="http://www.w3.org/2000/svg" viewBox="0 0 99.2 99"><defs><style>.cls-1{fill:#fff;}</style></defs><path class="cls-1" d="M64.3,112c7.6-1.1,14.2-9,18.4-20.7a94.4,94.4,0,0,0-18.4-2.2Z" transform="translate(-12.9 -13)"/><path class="cls-1" d="M76.4,110.1l1.3-.4,1.1-.3,1.3-.5,1.1-.5,1.3-.5,1.1-.5,1.2-.6,1.1-.5,1.2-.7,1-.6,1.2-.7,1-.7,1.1-.7,1-.7,1-.9,1-.8a4.1,4.1,0,0,0,1-.9l.9-.8,1-.9.9-.9h.1a57.3,57.3,0,0,0-12.1-4.7,43.6,43.6,0,0,1-11.4,18.4h.5Z" transform="translate(-12.9 -13)"/><path class="cls-1" d="M112.1,64.2H90.8a88.5,88.5,0,0,1-3.5,24.5A59.4,59.4,0,0,1,100.7,94,49.4,49.4,0,0,0,112.1,64.2Z" transform="translate(-12.9 -13)"/><path class="cls-1" d="M64.3,60.6h23A89.8,89.8,0,0,0,83.8,37a98,98,0,0,1-19.5,2.3Z" transform="translate(-12.9 -13)"/><path class="cls-1" d="M64.3,13V35.9a94.4,94.4,0,0,0,18.4-2.2C78.5,22,71.9,14.1,64.3,13Z" transform="translate(-12.9 -13)"/><path class="cls-1" d="M64.3,85.5a98,98,0,0,1,19.5,2.3,89.8,89.8,0,0,0,3.5-23.6h-23Z" transform="translate(-12.9 -13)"/><path class="cls-1" d="M100.7,30.7a64.8,64.8,0,0,1-13.4,5.4,88.5,88.5,0,0,1,3.5,24.5h21.3A49.9,49.9,0,0,0,100.7,30.7Z" transform="translate(-12.9 -13)"/><path class="cls-1" d="M98.3,28.2V28l-.9-.9-1-.9-.9-.8-1-.9-1-.8-1-.8-1-.7-1.1-.8-1-.7L88.1,20l-1-.6-1.2-.7-1.1-.5-1.2-.6-1.1-.5-1.3-.5-1.1-.5-1.3-.5-1.1-.3-1.3-.4-1.1-.4h-.5A44.3,44.3,0,0,1,86.2,32.8,57,57,0,0,0,98.3,28.2Z" transform="translate(-12.9 -13)"/><path class="cls-1" d="M12.9,60.6H34.2a88.5,88.5,0,0,1,3.5-24.5,64.8,64.8,0,0,1-13.4-5.4A49.9,49.9,0,0,0,12.9,60.6Z" transform="translate(-12.9 -13)"/><path class="cls-1" d="M60.7,112V89.1a95.3,95.3,0,0,0-18.4,2.2C46.5,103,53.1,110.9,60.7,112Z" transform="translate(-12.9 -13)"/><path class="cls-1" d="M60.7,64.2h-23a89.8,89.8,0,0,0,3.5,23.6,98.9,98.9,0,0,1,19.5-2.3Z" transform="translate(-12.9 -13)"/><path class="cls-1" d="M60.7,13c-7.6,1.1-14.2,9-18.4,20.7a95.3,95.3,0,0,0,18.4,2.2Z" transform="translate(-12.9 -13)"/><path class="cls-1" d="M60.7,39.3A98.9,98.9,0,0,1,41.2,37a89.8,89.8,0,0,0-3.5,23.6h23Z" transform="translate(-12.9 -13)"/><path class="cls-1" d="M50.2,14.4h-.5l-1.1.4-1.3.4-1.1.3-1.3.5-1.1.5-1.3.5-1.1.5-1.2.6-1.1.5-1.2.7-1,.6-1.2.7-1,.7-1.1.7-1,.8-1,.8-1,.8a4.1,4.1,0,0,0-1,.9l-.9.8-1,.9-.9.9h-.1a57.3,57.3,0,0,0,12.1,4.7A43.6,43.6,0,0,1,50.2,14.4Z" transform="translate(-12.9 -13)"/><path class="cls-1" d="M27.7,97.9l1,.9.9.8,1,.9,1,.8,1,.8,1,.8,1.1.7,1,.7,1.2.7,1,.6,1.2.7,1.1.5,1.2.6,1.1.5,1.3.6,1.1.4,1.3.5,1.1.3,1.3.4,1.1.4h.5A44.3,44.3,0,0,1,38.8,92.2a59.1,59.1,0,0,0-12.1,4.6.3.3,0,0,0,.1.2Z" transform="translate(-12.9 -13)"/><path class="cls-1" d="M24.3,94a59.4,59.4,0,0,1,13.4-5.3,88.5,88.5,0,0,1-3.5-24.5H12.9A49.4,49.4,0,0,0,24.3,94Z" transform="translate(-12.9 -13)"/></svg>