<svg id="Layer_1" data-name="Layer 1" xmlns="http://www.w3.org/2000/svg" viewBox="0 0 99 99"><defs><style>.cls-1{fill:#fff;}</style></defs><path class="cls-1" d="M72,62.5A9.5,9.5,0,1,1,62.5,53,9.6,9.6,0,0,1,72,62.5Z" transform="translate(-13 -13)"/><path class="cls-1" d="M84.7,45.7a8.7,8.7,0,0,0-2.2-3.2,8.7,8.7,0,0,0-3.2-2.2,18.3,18.3,0,0,0-5.3-.9c-3-.2-3.9-.2-11.5-.2s-8.5,0-11.5.2a18.3,18.3,0,0,0-5.3.9,8.7,8.7,0,0,0-3.2,2.2,8.7,8.7,0,0,0-2.2,3.2,18.3,18.3,0,0,0-.9,5.3c-.2,3-.2,3.9-.2,11.5s0,8.5.2,11.5a18.3,18.3,0,0,0,.9,5.3,8.7,8.7,0,0,0,2.2,3.2,8.7,8.7,0,0,0,3.2,2.2,18.3,18.3,0,0,0,5.3.9c3,.2,3.9.2,11.5.2s8.5,0,11.5-.2a18.3,18.3,0,0,0,5.3-.9,10.2,10.2,0,0,0,5.4-5.4,18.3,18.3,0,0,0,.9-5.3c.2-3,.2-3.9.2-11.5s0-8.5-.2-11.5A18.3,18.3,0,0,0,84.7,45.7ZM62.5,77.1A14.6,14.6,0,1,1,77.1,62.5,14.6,14.6,0,0,1,62.5,77.1ZM77.7,50.7a3.4,3.4,0,1,1,3.4-3.4A3.4,3.4,0,0,1,77.7,50.7Z" transform="translate(-13 -13)"/><path class="cls-1" d="M62.5,13A49.5,49.5,0,1,0,112,62.5,49.5,49.5,0,0,0,62.5,13ZM90.8,74.2a22.5,22.5,0,0,1-1.4,6.9,14.2,14.2,0,0,1-8.3,8.3,22.5,22.5,0,0,1-6.9,1.4H50.8a22.5,22.5,0,0,1-6.9-1.4,15.2,15.2,0,0,1-5.1-3.2,15.2,15.2,0,0,1-3.2-5.1,22.5,22.5,0,0,1-1.4-6.9c-.1-3-.1-4-.1-11.7s0-8.7.1-11.7a22.5,22.5,0,0,1,1.4-6.9,15.2,15.2,0,0,1,3.2-5.1,15.2,15.2,0,0,1,5.1-3.2,22.5,22.5,0,0,1,6.9-1.4H74.2a22.5,22.5,0,0,1,6.9,1.4,15.2,15.2,0,0,1,5.1,3.2,15.2,15.2,0,0,1,3.2,5.1,22.5,22.5,0,0,1,1.4,6.9c.1,3,.1,4,.1,11.7S90.9,71.2,90.8,74.2Z" transform="translate(-13 -13)"/></svg>