<svg id="Layer_1" data-name="Layer 1" xmlns="http://www.w3.org/2000/svg" viewBox="0 0 99.6 99.6"><defs><style>.cls-1{fill:#fff;}</style></defs><g id="pinterest"><path class="cls-1" d="M63,12.4a49.8,49.8,0,0,0-20,95.4,44.9,44.9,0,0,1,.9-11.4c.9-4.1,6.4-27.2,6.4-27.2a19,19,0,0,1-1.6-7.8c0-7.4,4.3-12.9,9.6-12.9S65,51.9,65,55.9s-2.9,11.4-4.4,17.7,2.7,9.6,7.9,9.6c9.4,0,15.8-12.1,15.8-26.5,0-10.9-7.4-19.1-20.8-19.1C48.4,37.6,39,48.9,39,61.5a14.6,14.6,0,0,0,3.3,9.8c.9,1,1.1,1.5.7,2.7l-1,4a1.7,1.7,0,0,1-2.5,1.3c-6.9-2.9-10.2-10.5-10.2-19.1,0-14.1,11.9-31.1,35.6-31.1,19,0,31.6,13.8,31.6,28.6,0,19.5-10.9,34.1-26.9,34.1-5.4,0-10.5-2.9-12.2-6.2,0,0-2.9,11.5-3.5,13.7a43.9,43.9,0,0,1-5,10.7A50.6,50.6,0,0,0,63,112a49.8,49.8,0,0,0,0-99.6Z" transform="translate(-13.2 -12.4)"/></g></svg>