<svg id="Layer_1" data-name="Layer 1" xmlns="http://www.w3.org/2000/svg" viewBox="0 0 98.9 80.3"><defs><style>.cls-1{fill:#fff;}</style></defs><path class="cls-1" d="M44.2,102.6c37.2,0,57.6-30.9,57.6-57.6V42.4a45.7,45.7,0,0,0,10.1-10.5,42.3,42.3,0,0,1-11.7,3.2,19.8,19.8,0,0,0,8.9-11.2,41.4,41.4,0,0,1-12.8,4.9,19.8,19.8,0,0,0-14.8-6.4A20.3,20.3,0,0,0,61.2,42.6a18.4,18.4,0,0,0,.6,4.7A58.2,58.2,0,0,1,20,26.1a20.2,20.2,0,0,0-2.7,10.2,19.8,19.8,0,0,0,9,16.8,20.7,20.7,0,0,1-9.2-2.5v.3A20.2,20.2,0,0,0,33.4,70.7a20,20,0,0,1-5.4.7,23.4,23.4,0,0,1-3.8-.3,20.3,20.3,0,0,0,18.9,14A39.7,39.7,0,0,1,18,93.8a39.1,39.1,0,0,1-4.9-.3,56,56,0,0,0,31.1,9.1" transform="translate(-13.1 -22.4)"/></svg>